<svg style="visibility: hidden; width: 0; height: 0;" xmlns="http://www.w3.org/2000/svg">
	<symbol id="bell-icon" viewBox="0 0 16 16">
		 <path d="M8 16a2 2 0 0 0 2-2H6a2 2 0 0 0 2 2zm.995-14.901a1 1 0 1 0-1.99 0A5.002 5.002 0 0 0 3 6c0 1.098-.5 6-2 7h14c-1.5-1-2-5.902-2-7 0-2.42-1.72-4.44-4.005-4.901z"/>
	</symbol>
	<symbol id="user-icon" viewBox="0 0 16 16">
  		<path d="M11 6a3 3 0 1 1-6 0 3 3 0 0 1 6 0z"/>
  		<path fill-rule="evenodd" d="M0 8a8 8 0 1 1 16 0A8 8 0 0 1 0 8zm8-7a7 7 0 0 0-5.468 11.37C3.242 11.226 4.805 10 8 10s4.757 1.225 5.468 2.37A7 7 0 0 0 8 1z"/>
	</symbol>
	<symbol id="menu-icon" viewBox="0 0 16 16">
	 <path d="M1 2a1 1 0 0 1 1-1h2a1 1 0 0 1 1 1v2a1 1 0 0 1-1 1H2a1 1 0 0 1-1-1V2zm5 0a1 1 0 0 1 1-1h2a1 1 0 0 1 1 1v2a1 1 0 0 1-1 1H7a1 1 0 0 1-1-1V2zm5 0a1 1 0 0 1 1-1h2a1 1 0 0 1 1 1v2a1 1 0 0 1-1 1h-2a1 1 0 0 1-1-1V2zM1 7a1 1 0 0 1 1-1h2a1 1 0 0 1 1 1v2a1 1 0 0 1-1 1H2a1 1 0 0 1-1-1V7zm5 0a1 1 0 0 1 1-1h2a1 1 0 0 1 1 1v2a1 1 0 0 1-1 1H7a1 1 0 0 1-1-1V7zm5 0a1 1 0 0 1 1-1h2a1 1 0 0 1 1 1v2a1 1 0 0 1-1 1h-2a1 1 0 0 1-1-1V7zM1 12a1 1 0 0 1 1-1h2a1 1 0 0 1 1 1v2a1 1 0 0 1-1 1H2a1 1 0 0 1-1-1v-2zm5 0a1 1 0 0 1 1-1h2a1 1 0 0 1 1 1v2a1 1 0 0 1-1 1H7a1 1 0 0 1-1-1v-2zm5 0a1 1 0 0 1 1-1h2a1 1 0 0 1 1 1v2a1 1 0 0 1-1 1h-2a1 1 0 0 1-1-1v-2z"/>
	</symbol>
	<symbol id="calendar-icon" viewBox="0 0 16 16">
 		<path d="M3.5 0a.5.5 0 0 1 .5.5V1h8V.5a.5.5 0 0 1 1 0V1h1a2 2 0 0 1 2 2v11a2 2 0 0 1-2 2H2a2 2 0 0 1-2-2V3a2 2 0 0 1 2-2h1V.5a.5.5 0 0 1 .5-.5zM1 4v10a1 1 0 0 0 1 1h12a1 1 0 0 0 1-1V4H1z"/>
	</symbol>
	<symbol id="archive-icon" viewBox="0 0 16 16">
 		  <path d="M0 2a1 1 0 0 1 1-1h14a1 1 0 0 1 1 1v2a1 1 0 0 1-1 1v7.5a2.5 2.5 0 0 1-2.5 2.5h-9A2.5 2.5 0 0 1 1 12.5V5a1 1 0 0 1-1-1V2zm2 3v7.5A1.5 1.5 0 0 0 3.5 14h9a1.5 1.5 0 0 0 1.5-1.5V5H2zm13-3H1v2h14V2zM5 7.5a.5.5 0 0 1 .5-.5h5a.5.5 0 0 1 0 1h-5a.5.5 0 0 1-.5-.5z"/>
	</symbol>
	<symbol id="at-icon" viewBox="0 0 16 16">
 		  <path d="M13.106 7.222c0-2.967-2.249-5.032-5.482-5.032-3.35 0-5.646 2.318-5.646 5.702 0 3.493 2.235 5.708 5.762 5.708.862 0 1.689-.123 2.304-.335v-.862c-.43.199-1.354.328-2.29.328-2.926 0-4.813-1.88-4.813-4.798 0-2.844 1.921-4.881 4.594-4.881 2.735 0 4.608 1.688 4.608 4.156 0 1.682-.554 2.769-1.416 2.769-.492 0-.772-.28-.772-.76V5.206H8.923v.834h-.11c-.266-.595-.881-.964-1.6-.964-1.4 0-2.378 1.162-2.378 2.823 0 1.737.957 2.906 2.379 2.906.8 0 1.415-.39 1.709-1.087h.11c.081.67.703 1.148 1.503 1.148 1.572 0 2.57-1.415 2.57-3.643zm-7.177.704c0-1.197.54-1.907 1.456-1.907.93 0 1.524.738 1.524 1.907S8.308 9.84 7.371 9.84c-.895 0-1.442-.725-1.442-1.914z"/>
	</symbol>
	<symbol id="bag-check-icon" viewBox="0 0 16 16">
 		  <path fill-rule="evenodd" d="M10.854 8.146a.5.5 0 0 1 0 .708l-3 3a.5.5 0 0 1-.708 0l-1.5-1.5a.5.5 0 0 1 .708-.708L7.5 10.793l2.646-2.647a.5.5 0 0 1 .708 0z"/>
  			<path d="M8 1a2.5 2.5 0 0 1 2.5 2.5V4h-5v-.5A2.5 2.5 0 0 1 8 1zm3.5 3v-.5a3.5 3.5 0 1 0-7 0V4H1v10a2 2 0 0 0 2 2h10a2 2 0 0 0 2-2V4h-3.5zM2 5h12v9a1 1 0 0 1-1 1H3a1 1 0 0 1-1-1V5z"/>
	</symbol>
	<symbol id="balloon-icon" viewBox="0 0 16 16">
 		<path fill-rule="evenodd" d="m8 2.42-.717-.737c-1.13-1.161-3.243-.777-4.01.72-.35.685-.451 1.707.236 3.062C4.16 6.753 5.52 8.32 8 10.042c2.479-1.723 3.839-3.29 4.491-4.577.687-1.355.587-2.377.236-3.061-.767-1.498-2.88-1.882-4.01-.721L8 2.42Zm-.49 8.5c-10.78-7.44-3-13.155.359-10.063.045.041.089.084.132.129.043-.045.087-.088.132-.129 3.36-3.092 11.137 2.624.357 10.063l.235.468a.25.25 0 1 1-.448.224l-.008-.017c.008.11.02.202.037.29.054.27.161.488.419 1.003.288.578.235 1.15.076 1.629-.157.469-.422.867-.588 1.115l-.004.007a.25.25 0 1 1-.416-.278c.168-.252.4-.6.533-1.003.133-.396.163-.824-.049-1.246l-.013-.028c-.24-.48-.38-.758-.448-1.102a3.177 3.177 0 0 1-.052-.45l-.04.08a.25.25 0 1 1-.447-.224l.235-.468ZM6.013 2.06c-.649-.18-1.483.083-1.85.798-.131.258-.245.689-.08 1.335.063.244.414.198.487-.043.21-.697.627-1.447 1.359-1.692.217-.073.304-.337.084-.398Z"/>
	</symbol>
	<symbol id="bicycle-icon" viewBox="0 0 16 16">
 		 <path d="M4 4.5a.5.5 0 0 1 .5-.5H6a.5.5 0 0 1 0 1v.5h4.14l.386-1.158A.5.5 0 0 1 11 4h1a.5.5 0 0 1 0 1h-.64l-.311.935.807 1.29a3 3 0 1 1-.848.53l-.508-.812-2.076 3.322A.5.5 0 0 1 8 10.5H5.959a3 3 0 1 1-1.815-3.274L5 5.856V5h-.5a.5.5 0 0 1-.5-.5zm1.5 2.443-.508.814c.5.444.85 1.054.967 1.743h1.139L5.5 6.943zM8 9.057 9.598 6.5H6.402L8 9.057zM4.937 9.5a1.997 1.997 0 0 0-.487-.877l-.548.877h1.035zM3.603 8.092A2 2 0 1 0 4.937 10.5H3a.5.5 0 0 1-.424-.765l1.027-1.643zm7.947.53a2 2 0 1 0 .848-.53l1.026 1.643a.5.5 0 1 1-.848.53L11.55 8.623z"/>
	</symbol>
	<symbol id="binoculars-icon" viewBox="0 0 16 16">
 		 <path d="M3 2.5A1.5 1.5 0 0 1 4.5 1h1A1.5 1.5 0 0 1 7 2.5V5h2V2.5A1.5 1.5 0 0 1 10.5 1h1A1.5 1.5 0 0 1 13 2.5v2.382a.5.5 0 0 0 .276.447l.895.447A1.5 1.5 0 0 1 15 7.118V14.5a1.5 1.5 0 0 1-1.5 1.5h-3A1.5 1.5 0 0 1 9 14.5v-3a.5.5 0 0 1 .146-.354l.854-.853V9.5a.5.5 0 0 0-.5-.5h-3a.5.5 0 0 0-.5.5v.793l.854.853A.5.5 0 0 1 7 11.5v3A1.5 1.5 0 0 1 5.5 16h-3A1.5 1.5 0 0 1 1 14.5V7.118a1.5 1.5 0 0 1 .83-1.342l.894-.447A.5.5 0 0 0 3 4.882V2.5zM4.5 2a.5.5 0 0 0-.5.5V3h2v-.5a.5.5 0 0 0-.5-.5h-1zM6 4H4v.882a1.5 1.5 0 0 1-.83 1.342l-.894.447A.5.5 0 0 0 2 7.118V13h4v-1.293l-.854-.853A.5.5 0 0 1 5 10.5v-1A1.5 1.5 0 0 1 6.5 8h3A1.5 1.5 0 0 1 11 9.5v1a.5.5 0 0 1-.146.354l-.854.853V13h4V7.118a.5.5 0 0 0-.276-.447l-.895-.447A1.5 1.5 0 0 1 12 4.882V4h-2v1.5a.5.5 0 0 1-.5.5h-3a.5.5 0 0 1-.5-.5V4zm4-1h2v-.5a.5.5 0 0 0-.5-.5h-1a.5.5 0 0 0-.5.5V3zm4 11h-4v.5a.5.5 0 0 0 .5.5h3a.5.5 0 0 0 .5-.5V14zm-8 0H2v.5a.5.5 0 0 0 .5.5h3a.5.5 0 0 0 .5-.5V14z"/>
	</symbol>
	<symbol id="book-icon" viewBox="0 0 16 16">
 		  <path d="M1 2.828c.885-.37 2.154-.769 3.388-.893 1.33-.134 2.458.063 3.112.752v9.746c-.935-.53-2.12-.603-3.213-.493-1.18.12-2.37.461-3.287.811V2.828zm7.5-.141c.654-.689 1.782-.886 3.112-.752 1.234.124 2.503.523 3.388.893v9.923c-.918-.35-2.107-.692-3.287-.81-1.094-.111-2.278-.039-3.213.492V2.687zM8 1.783C7.015.936 5.587.81 4.287.94c-1.514.153-3.042.672-3.994 1.105A.5.5 0 0 0 0 2.5v11a.5.5 0 0 0 .707.455c.882-.4 2.303-.881 3.68-1.02 1.409-.142 2.59.087 3.223.877a.5.5 0 0 0 .78 0c.633-.79 1.814-1.019 3.222-.877 1.378.139 2.8.62 3.681 1.02A.5.5 0 0 0 16 13.5v-11a.5.5 0 0 0-.293-.455c-.952-.433-2.48-.952-3.994-1.105C10.413.809 8.985.936 8 1.783z"/>
	</symbol>
	<symbol id="box-icon" viewBox="0 0 16 16">
 		  <path d="M8.186 1.113a.5.5 0 0 0-.372 0L1.846 3.5l2.404.961L10.404 2l-2.218-.887zm3.564 1.426L5.596 5 8 5.961 14.154 3.5l-2.404-.961zm3.25 1.7-6.5 2.6v7.922l6.5-2.6V4.24zM7.5 14.762V6.838L1 4.239v7.923l6.5 2.6zM7.443.184a1.5 1.5 0 0 1 1.114 0l7.129 2.852A.5.5 0 0 1 16 3.5v8.662a1 1 0 0 1-.629.928l-7.185 2.874a.5.5 0 0 1-.372 0L.63 13.09a1 1 0 0 1-.63-.928V3.5a.5.5 0 0 1 .314-.464L7.443.184z"/>
	</symbol>
	<symbol id="cart-icon" viewBox="0 0 16 16">
 		  <path d="M0 1.5A.5.5 0 0 1 .5 1H2a.5.5 0 0 1 .485.379L2.89 3H14.5a.5.5 0 0 1 .491.592l-1.5 8A.5.5 0 0 1 13 12H4a.5.5 0 0 1-.491-.408L2.01 3.607 1.61 2H.5a.5.5 0 0 1-.5-.5zM3.102 4l1.313 7h8.17l1.313-7H3.102zM5 12a2 2 0 1 0 0 4 2 2 0 0 0 0-4zm7 0a2 2 0 1 0 0 4 2 2 0 0 0 0-4zm-7 1a1 1 0 1 1 0 2 1 1 0 0 1 0-2zm7 0a1 1 0 1 1 0 2 1 1 0 0 1 0-2z"/>
	</symbol>
	<symbol id="clipboard-icon" viewBox="0 0 16 16">
 		   <path d="M4 11a1 1 0 1 1 2 0v1a1 1 0 1 1-2 0v-1zm6-4a1 1 0 1 1 2 0v5a1 1 0 1 1-2 0V7zM7 9a1 1 0 0 1 2 0v3a1 1 0 1 1-2 0V9z"/>
  			<path d="M4 1.5H3a2 2 0 0 0-2 2V14a2 2 0 0 0 2 2h10a2 2 0 0 0 2-2V3.5a2 2 0 0 0-2-2h-1v1h1a1 1 0 0 1 1 1V14a1 1 0 0 1-1 1H3a1 1 0 0 1-1-1V3.5a1 1 0 0 1 1-1h1v-1z"/>
  			<path d="M9.5 1a.5.5 0 0 1 .5.5v1a.5.5 0 0 1-.5.5h-3a.5.5 0 0 1-.5-.5v-1a.5.5 0 0 1 .5-.5h3zm-3-1A1.5 1.5 0 0 0 5 1.5v1A1.5 1.5 0 0 0 6.5 4h3A1.5 1.5 0 0 0 11 2.5v-1A1.5 1.5 0 0 0 9.5 0h-3z"/>
	</symbol>
	<symbol id="easel-icon" viewBox="0 0 16 16">
 		   <path d="M8 0a.5.5 0 0 1 .473.337L9.046 2H14a1 1 0 0 1 1 1v7a1 1 0 0 1-1 1h-1.85l1.323 3.837a.5.5 0 1 1-.946.326L11.092 11H8.5v3a.5.5 0 0 1-1 0v-3H4.908l-1.435 4.163a.5.5 0 1 1-.946-.326L3.85 11H2a1 1 0 0 1-1-1V3a1 1 0 0 1 1-1h4.954L7.527.337A.5.5 0 0 1 8 0zM2 3v7h12V3H2z"/>
	</symbol>
</svg>







