<?xml version="1.0" standalone="no"?>
<!DOCTYPE svg PUBLIC "-//W3C//DTD SVG 20010904//EN"
 "http://www.w3.org/TR/2001/REC-SVG-20010904/DTD/svg10.dtd">
<svg version="1.0" xmlns="http://www.w3.org/2000/svg"
 width="512.000000pt" height="512.000000pt" viewBox="0 0 512.000000 512.000000"
 preserveAspectRatio="xMidYMid meet">

<g transform="translate(0.000000,512.000000) scale(0.100000,-0.100000)"
fill="#000000" stroke="none">
<path d="M1913 5004 c-93 -34 -164 -150 -149 -246 18 -113 112 -198 217 -198
l42 0 -6 -287 c-8 -409 -45 -641 -158 -991 -38 -116 -40 -125 -25 -148 20 -29
65 -33 88 -6 30 34 111 307 152 512 43 216 58 361 63 648 l6 272 417 0 417 0
6 -272 c8 -431 57 -723 179 -1078 67 -193 103 -271 608 -1296 269 -546 496
-1018 506 -1050 10 -36 17 -92 17 -144 -1 -185 -101 -353 -259 -437 -125 -66
-45 -63 -1474 -63 -1131 0 -1303 2 -1355 15 -173 46 -311 179 -361 350 -22 78
-22 202 0 279 10 33 206 442 437 909 231 468 419 862 419 877 0 14 -5 31 -12
38 -16 16 -73 15 -85 0 -5 -7 -202 -402 -436 -878 -271 -551 -432 -888 -442
-929 -19 -74 -21 -227 -4 -298 6 -26 29 -86 52 -133 71 -151 218 -273 392
-327 57 -17 127 -18 1395 -18 1266 0 1338 1 1394 18 222 69 386 237 441 452
20 77 19 230 -1 309 -9 37 -207 449 -515 1074 -495 1005 -575 1180 -642 1402
-94 311 -127 534 -134 913 l-6 287 42 0 c105 0 199 85 217 198 16 98 -56 213
-153 246 -68 23 -1225 23 -1290 0z m1274 -124 c64 -38 66 -132 5 -180 -24 -19
-43 -20 -632 -20 -589 0 -608 1 -632 20 -61 48 -59 142 5 180 31 19 55 20 627
20 572 0 596 -1 627 -20z"/>
<path fill="#00FFFF" d="M2370 3668 c-79 -22 -131 -113 -109 -191 22 -79 90 -124 174 -114 87
9 141 79 133 169 -10 100 -103 164 -198 136z m80 -152 c0 -38 -52 -50 -70 -16
-15 28 22 65 50 50 11 -6 20 -21 20 -34z"/>
<path fill="#00FFFF" d="M2639 3012 c-156 -82 -153 -306 6 -384 86 -43 175 -28 245 41 74 71
89 155 46 247 -53 114 -183 156 -297 96z m166 -115 c17 -14 28 -36 32 -63 5
-36 1 -46 -25 -75 -71 -79 -193 -9 -162 93 19 65 103 90 155 45z"/>
<path fill="#00FFFF"
      d="M1920 2366 c-51 -15 -133 -56 -234 -118 l-70 -43 -324 -656 c-269
-546 -325 -667 -335 -722 -38 -226 122 -450 348 -487 81 -13 2429 -13 2510 0
226 37 386 261 348 487 -10 55 -67 178 -345 741 -250 507 -338 676 -354 683
-27 10 -142 -6 -192 -26 -20 -9 -83 -43 -139 -76 -131 -78 -199 -99 -313 -99
-151 0 -246 41 -386 166 -94 85 -171 130 -254 148 -81 19 -197 19 -260 2z
m292 -138 c29 -14 98 -64 153 -112 108 -94 218 -156 313 -175 73 -15 236 -14
297 3 69 18 137 49 214 98 85 53 160 88 192 88 24 0 41 -30 254 -462 461 -936
409 -821 410 -907 0 -125 -61 -223 -173 -278 l-57 -28 -1250 0 c-1167 0 -1253
2 -1294 18 -135 53 -220 204 -192 338 8 34 125 284 320 679 l307 625 103 62
c56 34 121 67 144 72 71 17 198 7 259 -21z"/>
<path fill="#00FFFF" d="M1734 1906 c-32 -22 -59 -102 -46 -132 13 -27 57 -42 81 -27 24 15
61 84 61 115 0 17 -9 33 -22 42 -28 20 -48 20 -74 2z"/>
<path fill="#00FFFF" d="M1592 1603 c-24 -22 -322 -657 -322 -688 0 -48 71 -74 102 -37 22 25
318 661 318 683 0 25 -35 59 -59 59 -10 0 -28 -8 -39 -17z"/>
</g>


</svg>
